<svg width="32" height="36" viewBox="0 0 32 36" fill="none" xmlns="http://www.w3.org/2000/svg">
    <path d="M26.136 35.3H5.09204C3.76123 35.2984 2.48536 34.769 1.54443 33.8278C0.603504 32.8867 0.0743213 31.6108 0.072998 30.28V8.93999C0.0745859 7.60935 0.604021 6.33368 1.54492 5.39278C2.48582 4.45188 3.76141 3.92256 5.09204 3.92097H26.136C27.4668 3.9223 28.7427 4.45148 29.6838 5.39241C30.625 6.33334 31.1544 7.60918 31.156 8.93999V30.28C31.1544 31.6109 30.6249 32.8868 29.6838 33.8279C28.7427 34.769 27.4669 35.2984 26.136 35.3V35.3ZM5.09204 5.76097C4.24916 5.76177 3.44098 6.09697 2.84497 6.69298C2.24896 7.28898 1.91388 8.09711 1.91309 8.93999V30.28C1.91388 31.123 2.24899 31.9312 2.84497 32.5274C3.44095 33.1235 4.24907 33.4589 5.09204 33.46H26.136C26.9791 33.4592 27.7876 33.1239 28.3838 32.5277C28.98 31.9315 29.3151 31.1231 29.3159 30.28V8.93999C29.3149 8.09702 28.9795 7.28889 28.3833 6.69292C27.7871 6.09694 26.979 5.76176 26.136 5.76097H5.09204Z" fill="#222C4C"/>
    <path d="M5.50192 4.84499H25.7269C26.9228 4.84499 28.0697 5.32004 28.9153 6.16564C29.7609 7.01124 30.2359 8.15812 30.2359 9.35399V13.145H0.99292V9.35399C0.99292 8.15812 1.46797 7.01124 2.31358 6.16564C3.15918 5.32004 4.30606 4.84499 5.50192 4.84499V4.84499Z" fill="#222C4C"/>
    <path d="M14.104 27.617C13.8623 27.6168 13.6305 27.5212 13.4589 27.351L8.6589 22.612C8.56884 22.5281 8.49655 22.427 8.44625 22.3147C8.39595 22.2024 8.36876 22.0811 8.36617 21.9581C8.36358 21.835 8.38559 21.7127 8.43111 21.5984C8.47663 21.4841 8.54486 21.38 8.63131 21.2924C8.71776 21.2048 8.8208 21.1355 8.93453 21.0885C9.04826 21.0415 9.17036 21.0178 9.29342 21.0187C9.41648 21.0197 9.53812 21.0454 9.65108 21.0942C9.76405 21.143 9.86585 21.214 9.95089 21.303L14.09 25.39L21.062 18.198C21.2318 18.0228 21.4645 17.9223 21.7085 17.9185C21.9524 17.9148 22.1878 18.0081 22.363 18.178C22.5382 18.3479 22.6388 18.5804 22.6425 18.8243C22.6463 19.0683 22.5529 19.3038 22.383 19.479L14.7651 27.337C14.6804 27.4242 14.5792 27.4938 14.4675 27.5419C14.3558 27.5899 14.2356 27.6154 14.114 27.617H14.104Z" fill="#222C4C"/>
    <path d="M9.29692 0.181992H9.13592C8.28596 0.181992 7.59692 0.871025 7.59692 1.72099V4.22199C7.59692 5.07196 8.28596 5.76099 9.13592 5.76099H9.29692C10.1469 5.76099 10.8359 5.07196 10.8359 4.22199V1.72099C10.8359 0.871025 10.1469 0.181992 9.29692 0.181992Z" fill="#222C4C"/>
    <path d="M22.1031 0.181992H21.9421C21.0921 0.181992 20.4031 0.871025 20.4031 1.72099V4.22199C20.4031 5.07196 21.0921 5.76099 21.9421 5.76099H22.1031C22.953 5.76099 23.6421 5.07196 23.6421 4.22199V1.72099C23.6421 0.871025 22.953 0.181992 22.1031 0.181992Z" fill="#222C4C"/>
    </svg>
    