<svg width="32" height="36" viewBox="0 0 32 36" fill="none" xmlns="http://www.w3.org/2000/svg">
    <path d="M26.166 35.3H5.12207C3.79144 35.2984 2.51561 34.7691 1.57471 33.8282C0.633806 32.8873 0.104615 31.6116 0.103027 30.281V8.94398C0.104615 7.61335 0.633806 6.33768 1.57471 5.39677C2.51561 4.45587 3.79144 3.92656 5.12207 3.92497H26.166C27.4967 3.92656 28.7726 4.45584 29.7136 5.39671C30.6547 6.33759 31.1842 7.61326 31.186 8.94398V30.285C31.1834 31.6151 30.6534 32.8899 29.7124 33.83C28.7714 34.77 27.4961 35.2987 26.166 35.3ZM5.12207 5.75999C4.27901 5.76105 3.47065 6.09641 2.87451 6.69255C2.27838 7.28869 1.9432 8.09692 1.94214 8.93999V30.281C1.9432 31.124 2.27859 31.9321 2.87476 32.5281C3.47092 33.124 4.2791 33.4592 5.12207 33.46H26.166C27.009 33.4592 27.8172 33.124 28.4133 32.5281C29.0095 31.9321 29.3449 31.124 29.3459 30.281V8.94398C29.3449 8.10092 29.0097 7.29268 28.4136 6.69655C27.8174 6.10041 27.0091 5.76505 26.166 5.76399L5.12207 5.75999Z" fill="#222C4C"/>
    <path d="M5.53097 4.84499H25.756C26.9518 4.84499 28.0987 5.32004 28.9443 6.16564C29.7899 7.01124 30.265 8.15812 30.265 9.35399V13.145H1.02197V9.35399C1.02197 8.15812 1.49703 7.01124 2.34263 6.16564C3.18823 5.32004 4.33511 4.84499 5.53097 4.84499V4.84499Z" fill="#222C4C"/>
    <path d="M9.12993 0.182999H8.96893C8.11897 0.182999 7.42993 0.872032 7.42993 1.722V4.223C7.42993 5.07296 8.11897 5.762 8.96893 5.762H9.12993C9.9799 5.762 10.6689 5.07296 10.6689 4.223V1.722C10.6689 0.872032 9.9799 0.182999 9.12993 0.182999Z" fill="#222C4C"/>
    <path d="M22.3191 0.182999H22.1581C21.3082 0.182999 20.6191 0.872032 20.6191 1.722V4.223C20.6191 5.07296 21.3082 5.762 22.1581 5.762H22.3191C23.1691 5.762 23.8581 5.07296 23.8581 4.223V1.722C23.8581 0.872032 23.1691 0.182999 22.3191 0.182999Z" fill="#222C4C"/>
    <path d="M30.2661 19.459H1.02197C0.777973 19.459 0.544115 19.3621 0.371582 19.1895C0.199049 19.017 0.102051 18.783 0.102051 18.539C0.102051 18.295 0.199049 18.061 0.371582 17.8884C0.544115 17.7159 0.777973 17.619 1.02197 17.619H30.2661C30.5101 17.619 30.744 17.7159 30.9165 17.8884C31.089 18.061 31.186 18.295 31.186 18.539C31.186 18.783 31.089 19.017 30.9165 19.1895C30.744 19.3621 30.5101 19.459 30.2661 19.459Z" fill="#222C4C"/>
    <path d="M30.2661 27.107H1.02197C0.777973 27.107 0.544115 27.01 0.371582 26.8375C0.199049 26.665 0.102051 26.431 0.102051 26.187C0.102051 25.943 0.199049 25.709 0.371582 25.5365C0.544115 25.3639 0.777973 25.267 1.02197 25.267H30.2661C30.5101 25.267 30.744 25.3639 30.9165 25.5365C31.089 25.709 31.186 25.943 31.186 26.187C31.186 26.431 31.089 26.665 30.9165 26.8375C30.744 27.01 30.5101 27.107 30.2661 27.107Z" fill="#222C4C"/>
    <path d="M10.6699 35.3C10.4259 35.3 10.1921 35.2031 10.0195 35.0305C9.84701 34.858 9.75001 34.624 9.75001 34.38V13.14C9.74595 13.0167 9.76667 12.8938 9.81105 12.7787C9.85543 12.6636 9.92253 12.5586 10.0083 12.4699C10.0941 12.3813 10.197 12.3108 10.3106 12.2626C10.4241 12.2145 10.5461 12.1897 10.6694 12.1897C10.7928 12.1897 10.915 12.2145 11.0286 12.2626C11.1422 12.3108 11.245 12.3813 11.3308 12.4699C11.4166 12.5586 11.4835 12.6636 11.5278 12.7787C11.5722 12.8938 11.5932 13.0167 11.5891 13.14V34.384C11.5883 34.6272 11.4911 34.8602 11.3189 35.0319C11.1466 35.2036 10.9131 35.3 10.6699 35.3Z" fill="#222C4C"/>
    <path d="M20.6192 35.3C20.4983 35.3 20.3785 35.2762 20.2669 35.23C20.1552 35.1837 20.0539 35.116 19.9685 35.0305C19.8831 34.9451 19.8153 34.8437 19.7691 34.732C19.7228 34.6204 19.699 34.5008 19.699 34.38V13.14C19.6949 13.0167 19.7156 12.8938 19.76 12.7787C19.8044 12.6636 19.8715 12.5586 19.9573 12.4699C20.0431 12.3813 20.1459 12.3108 20.2595 12.2626C20.3731 12.2145 20.4953 12.1897 20.6187 12.1897C20.742 12.1897 20.864 12.2145 20.9776 12.2626C21.0911 12.3108 21.194 12.3813 21.2798 12.4699C21.3656 12.5586 21.4327 12.6636 21.4771 12.7787C21.5214 12.8938 21.5422 13.0167 21.5381 13.14V34.384C21.5373 34.6272 21.4401 34.8602 21.2678 35.0319C21.0956 35.2036 20.8624 35.3 20.6192 35.3Z" fill="#222C4C"/>
    </svg>
    