<svg width="35" height="31" viewBox="0 0 35 31" fill="none" xmlns="http://www.w3.org/2000/svg">
    <path d="M1.73182 14.255C1.54106 14.2553 1.35505 14.1963 1.19935 14.0861C1.04365 13.9759 0.92601 13.82 0.862924 13.6399C0.799838 13.4599 0.794452 13.2647 0.847299 13.0814C0.900146 12.8981 1.0086 12.7358 1.15785 12.617L12.7579 3.34799C12.9168 3.22127 13.1131 3.15069 13.3163 3.14725C13.5194 3.14381 13.718 3.20773 13.881 3.32901L21.9408 9.32901L32.9569 0.608004C33.0517 0.533151 33.1603 0.477693 33.2765 0.444796C33.3927 0.4119 33.5142 0.402194 33.6342 0.416263C33.7541 0.430331 33.8701 0.467906 33.9755 0.526797C34.0809 0.585688 34.1736 0.664745 34.2484 0.759494C34.3233 0.854242 34.3786 0.962801 34.4115 1.07898C34.4444 1.19516 34.4541 1.31669 34.4401 1.43662C34.426 1.55654 34.3886 1.67254 34.3297 1.77796C34.2708 1.88337 34.1916 1.97614 34.0968 2.051L22.526 11.207C22.3672 11.3323 22.1714 11.4018 21.9691 11.4047C21.7668 11.4076 21.5692 11.3437 21.4069 11.223L13.35 5.228L2.30604 14.054C2.1431 14.1843 1.94043 14.2552 1.73182 14.255Z" fill="#222C4C"/>
    <path d="M4.70312 30.206C4.5219 30.206 4.34248 30.1703 4.17505 30.101C4.00762 30.0316 3.85544 29.93 3.72729 29.8018C3.59915 29.6737 3.49733 29.5215 3.42798 29.3541C3.35863 29.1867 3.323 29.0072 3.323 28.826V20.053C3.323 19.687 3.46849 19.336 3.72729 19.0772C3.9861 18.8184 4.33713 18.673 4.70312 18.673C5.06912 18.673 5.42015 18.8184 5.67896 19.0772C5.93776 19.336 6.08301 19.687 6.08301 20.053V28.826C6.08314 29.0072 6.04758 29.1868 5.97827 29.3542C5.90897 29.5217 5.80737 29.6739 5.6792 29.8021C5.55103 29.9303 5.39869 30.0319 5.2312 30.1012C5.06371 30.1705 4.88439 30.2061 4.70312 30.206Z" fill="#222C4C"/>
    <path d="M13.3301 30.206C12.9641 30.206 12.6131 30.0606 12.3543 29.8018C12.0955 29.543 11.95 29.192 11.95 28.826V13.71C11.945 13.5257 11.9771 13.3423 12.0442 13.1706C12.1113 12.9989 12.212 12.8424 12.3406 12.7103C12.4692 12.5782 12.6231 12.4732 12.793 12.4015C12.9628 12.3298 13.1452 12.2928 13.3296 12.2928C13.514 12.2928 13.6964 12.3298 13.8662 12.4015C14.0361 12.4732 14.1898 12.5782 14.3184 12.7103C14.447 12.8424 14.5479 12.9989 14.615 13.1706C14.6821 13.3423 14.714 13.5257 14.709 13.71V28.826C14.7091 29.0072 14.6735 29.1866 14.6043 29.354C14.535 29.5215 14.4335 29.6736 14.3054 29.8018C14.1774 29.9299 14.0253 30.0316 13.8579 30.1009C13.6905 30.1703 13.5113 30.206 13.3301 30.206Z" fill="#222C4C"/>
    <path d="M21.957 30.206C21.591 30.206 21.24 30.0606 20.9812 29.8018C20.7224 29.543 20.5772 29.192 20.5772 28.826V17.849C20.5722 17.6647 20.6041 17.4813 20.6712 17.3096C20.7383 17.1379 20.8392 16.9814 20.9678 16.8493C21.0964 16.7172 21.2501 16.6122 21.4199 16.5405C21.5898 16.4688 21.7722 16.4319 21.9566 16.4319C22.1409 16.4319 22.3233 16.4688 22.4932 16.5405C22.663 16.6122 22.8167 16.7172 22.9453 16.8493C23.0739 16.9814 23.1749 17.1379 23.242 17.3096C23.3091 17.4813 23.3409 17.6647 23.336 17.849V28.826C23.3361 29.0072 23.3007 29.1866 23.2315 29.354C23.1622 29.5215 23.0605 29.6736 22.9324 29.8018C22.8043 29.9299 22.6523 30.0316 22.4849 30.1009C22.3175 30.1703 22.1382 30.206 21.957 30.206Z" fill="#222C4C"/>
    <path d="M30.582 30.206C30.4008 30.2061 30.2212 30.1705 30.0537 30.1012C29.8862 30.0319 29.7341 29.9303 29.606 29.8021C29.4778 29.6739 29.3762 29.5217 29.3069 29.3542C29.2376 29.1868 29.202 29.0072 29.2021 28.826V13.71C29.2021 13.3441 29.3473 12.9933 29.606 12.7346C29.8647 12.4759 30.2157 12.3305 30.5815 12.3305C30.9474 12.3305 31.2982 12.4759 31.5569 12.7346C31.8156 12.9933 31.9609 13.3441 31.9609 13.71V28.826C31.9611 29.0072 31.9257 29.1866 31.8564 29.354C31.7872 29.5215 31.6854 29.6736 31.5574 29.8018C31.4293 29.9299 31.2772 30.0316 31.1099 30.1009C30.9425 30.1703 30.7632 30.206 30.582 30.206Z" fill="#222C4C"/>
    </svg>
    