<svg width="35" height="36" viewBox="0 0 35 36" fill="none" xmlns="http://www.w3.org/2000/svg">
    <path d="M17.6292 35.066C14.2032 35.065 10.8544 34.0482 8.00635 32.1441C5.15825 30.24 2.93855 27.5342 1.62818 24.3688C0.317805 21.2033 -0.0244433 17.7204 0.644533 14.3604C1.31351 11.0004 2.96361 7.9142 5.38648 5.49203C7.80934 3.06987 10.8962 1.42051 14.2563 0.752502C17.6165 0.0844953 21.0993 0.427821 24.2644 1.7391C27.4295 3.05039 30.1346 5.27074 32.0378 8.11938C33.9411 10.968 34.957 14.3171 34.957 17.743C34.952 22.3367 33.1247 26.7407 29.876 29.9884C26.6273 33.2362 22.2228 35.0623 17.6292 35.066ZM17.6292 2.26001C14.5669 2.26001 11.5733 3.16806 9.0271 4.86935C6.48094 6.57065 4.49658 8.98875 3.32471 11.8179C2.15284 14.647 1.84619 17.7602 2.44361 20.7636C3.04102 23.767 4.51557 26.5258 6.68091 28.6911C8.84625 30.8565 11.605 32.3311 14.6084 32.9285C17.6118 33.5259 20.7251 33.2193 23.5542 32.0474C26.3834 30.8756 28.8014 28.891 30.5027 26.3449C32.204 23.7987 33.1121 20.8053 33.1121 17.743C33.1076 13.638 31.4749 9.70249 28.5723 6.79983C25.6696 3.89718 21.7341 2.26451 17.6292 2.26001Z" fill="#222C4C"/>
    <path d="M24.1179 23.4C23.9374 23.3999 23.7611 23.3463 23.6111 23.246L16.481 18.514C16.3545 18.43 16.2509 18.316 16.1792 18.1821C16.1075 18.0483 16.07 17.8988 16.0701 17.747V7.97298C16.0701 7.72898 16.1671 7.49497 16.3396 7.32243C16.5121 7.1499 16.746 7.05299 16.99 7.05299C17.234 7.05299 17.4681 7.1499 17.6406 7.32243C17.8132 7.49497 17.9099 7.72898 17.9099 7.97298V17.254L24.6279 21.714C24.7924 21.8234 24.9176 21.9829 24.9844 22.1688C25.0512 22.3547 25.0562 22.5572 24.999 22.7464C24.9418 22.9355 24.8254 23.1011 24.6667 23.2189C24.5081 23.3366 24.3155 23.4001 24.1179 23.4Z" fill="#222C4C"/>
    </svg>
    