<svg width="13" height="13" viewBox="0 0 13 13" fill="none" xmlns="http://www.w3.org/2000/svg">
    <path d="M2.14401 10.924C1.27902 10.1053 0.676216 9.04851 0.411811 7.88724C0.147407 6.72597 0.233283 5.51234 0.658577 4.39988C1.08387 3.28741 1.82949 2.32609 2.80114 1.63736C3.77279 0.94864 4.92685 0.563474 6.11739 0.530614C7.30792 0.497753 8.48147 0.818655 9.48963 1.45273C10.4978 2.08681 11.2953 3.00562 11.7813 4.09293C12.2673 5.18024 12.42 6.38723 12.2201 7.56131C12.0201 8.7354 11.4765 9.82385 10.658 10.689C9.55914 11.8474 8.04568 12.5227 6.4496 12.5667C4.85351 12.6108 3.30511 12.02 2.14401 10.924ZM9.98002 2.64499C9.20772 1.91377 8.2359 1.42799 7.1875 1.24912C6.1391 1.07024 5.0612 1.20628 4.09013 1.64005C3.11905 2.07382 2.29843 2.78581 1.73205 3.68601C1.16566 4.5862 0.878958 5.63415 0.908195 6.6973C0.937432 7.76045 1.2813 8.79108 1.8963 9.65879C2.5113 10.5265 3.36981 11.1923 4.36326 11.5721C5.3567 11.9518 6.44045 12.0284 7.47744 11.7922C8.51443 11.556 9.45807 11.0175 10.189 10.245C11.1674 9.20858 11.6948 7.82648 11.6557 6.40177C11.6165 4.97706 11.0139 3.62605 9.98002 2.64499Z" fill="#F48E8C"/>
    <path d="M8.054 8.66996L4.07 4.9C4.03807 4.87114 4.01224 4.83615 3.99402 4.79716C3.97579 4.75817 3.96554 4.71596 3.96387 4.67295C3.9622 4.62995 3.96914 4.58702 3.98428 4.54673C3.99943 4.50645 4.02247 4.46959 4.05206 4.43833C4.08165 4.40708 4.11719 4.38205 4.15659 4.36473C4.19598 4.3474 4.23845 4.33813 4.28149 4.33744C4.32452 4.33676 4.36726 4.34469 4.40719 4.36076C4.44712 4.37682 4.48343 4.40071 4.514 4.43101L8.5 8.19999C8.53192 8.22886 8.55776 8.26378 8.57598 8.30278C8.59421 8.34177 8.60446 8.38404 8.60613 8.42704C8.6078 8.47005 8.60086 8.51292 8.58572 8.5532C8.57057 8.59349 8.54753 8.63035 8.51794 8.6616C8.48835 8.69286 8.45281 8.71788 8.41341 8.73521C8.37402 8.75254 8.33155 8.76187 8.28851 8.76255C8.24548 8.76324 8.20274 8.7553 8.16281 8.73924C8.12288 8.72317 8.08657 8.69928 8.056 8.66899L8.054 8.66996Z" fill="#F48E8C"/>
    <path d="M4.13698 8.81797C4.10618 8.78886 4.08144 8.75395 4.06416 8.71525C4.04688 8.67655 4.03742 8.63481 4.03631 8.59245C4.03519 8.55008 4.04245 8.50792 4.05767 8.46836C4.07288 8.42881 4.09575 8.39267 4.12497 8.36198L7.97397 4.29399C8.03337 4.23405 8.11387 4.19975 8.19825 4.19841C8.28262 4.19706 8.36416 4.22877 8.42544 4.28678C8.48672 4.3448 8.52287 4.42451 8.52614 4.50883C8.52942 4.59315 8.49957 4.67536 8.44298 4.73796L4.59398 8.80601C4.53486 8.86803 4.4536 8.9041 4.36796 8.90635C4.28231 8.9086 4.19926 8.8768 4.13698 8.81797Z" fill="#F48E8C"/>
    </svg>
    