<svg width="27" height="35" viewBox="0 0 27 35" fill="none" xmlns="http://www.w3.org/2000/svg">
    <path d="M23.4221 34.6H3.80615C2.97193 34.5989 2.17206 34.267 1.58228 33.677C0.992487 33.0871 0.660706 32.2872 0.659912 31.453V3.15302C0.660706 2.3188 0.992487 1.51893 1.58228 0.928955C2.17206 0.338979 2.97193 0.00707091 3.80615 0.00601196H15.3062C15.6461 0.00627681 15.9718 0.141411 16.2122 0.381775C16.4525 0.622139 16.5879 0.948068 16.5881 1.28799V8.83701C16.5884 9.12681 16.7035 9.40467 16.9084 9.60959C17.1134 9.81451 17.3914 9.92973 17.6812 9.92999H25.3501C25.6741 9.93026 25.9848 10.0591 26.2139 10.2882C26.443 10.5173 26.5718 10.828 26.572 11.152V31.452C26.5715 32.2871 26.2394 33.0878 25.6487 33.6781C25.058 34.2684 24.2572 34.6 23.4221 34.6ZM3.80615 1.84698C3.45968 1.84751 3.12732 1.98541 2.88232 2.23041C2.63733 2.4754 2.49955 2.80752 2.49902 3.15399V31.454C2.49955 31.8006 2.63736 32.1328 2.88232 32.378C3.12729 32.6231 3.45958 32.7612 3.80615 32.762H23.4221C23.7688 32.7615 24.1009 32.6235 24.3459 32.3783C24.591 32.1331 24.7287 31.8007 24.729 31.454V11.775H17.678C16.9004 11.7739 16.155 11.4646 15.6052 10.9148C15.0554 10.3649 14.7462 9.61957 14.7451 8.84201V1.85101L3.80615 1.84698Z" fill="#222C4C"/>
    <path d="M17.824 0.818986V8.38197C17.824 8.46525 17.8571 8.54513 17.916 8.60402C17.9749 8.66291 18.0547 8.696 18.1379 8.696H25.7009C25.763 8.69599 25.8239 8.67756 25.8755 8.64305C25.9271 8.60855 25.9672 8.55952 25.991 8.50215C26.0147 8.44478 26.0211 8.38166 26.009 8.32076C25.9969 8.25985 25.967 8.2039 25.9231 8.15999L18.3569 0.599992C18.3131 0.557269 18.2576 0.528311 18.1975 0.516679C18.1374 0.505046 18.0752 0.511227 18.0186 0.534501C17.9619 0.557775 17.9135 0.597116 17.8789 0.64766C17.8443 0.698204 17.8251 0.757757 17.824 0.818986Z" fill="#222C4C"/>
    <path d="M10.7641 4.379H5.45409C5.13211 4.379 4.87109 4.64002 4.87109 4.962V5.955C4.87109 6.27698 5.13211 6.538 5.45409 6.538H10.7641C11.0861 6.538 11.3471 6.27698 11.3471 5.955V4.962C11.3471 4.64002 11.0861 4.379 10.7641 4.379Z" fill="#222C4C"/>
    <path d="M10.7641 8.69601H5.45409C5.13211 8.69601 4.87109 8.95703 4.87109 9.27901V10.272C4.87109 10.594 5.13211 10.855 5.45409 10.855H10.7641C11.0861 10.855 11.3471 10.594 11.3471 10.272V9.27901C11.3471 8.95703 11.0861 8.69601 10.7641 8.69601Z" fill="#222C4C"/>
    <path d="M12.644 29.806C12.6048 29.7693 12.5738 29.7246 12.5532 29.6749C12.5327 29.6252 12.5232 29.5717 12.5251 29.518V28.412C11.8163 28.3411 11.1277 28.1344 10.4971 27.803C9.98722 27.539 9.55202 27.1507 9.23193 26.674C8.95492 26.2511 8.79755 25.7611 8.77612 25.256C8.7761 25.2124 8.78481 25.1693 8.802 25.1292C8.81919 25.0892 8.84436 25.053 8.87598 25.023C8.90837 24.9904 8.94711 24.9647 8.98975 24.9475C9.03238 24.9303 9.07807 24.922 9.12402 24.923H11.1431C11.2518 24.9182 11.3597 24.9435 11.4551 24.996C11.5484 25.0548 11.6321 25.1276 11.7031 25.212C11.8533 25.5013 12.0841 25.7407 12.3679 25.901C12.7504 26.1003 13.1793 26.1942 13.6101 26.173C14.092 26.2014 14.5729 26.102 15.0042 25.885C15.1487 25.8111 15.27 25.6987 15.3547 25.5601C15.4394 25.4216 15.4842 25.2624 15.4841 25.1C15.4873 24.9916 15.4667 24.8837 15.4238 24.7841C15.381 24.6844 15.3169 24.5953 15.2361 24.523C15.0061 24.3396 14.7419 24.2037 14.459 24.123C13.9427 23.9634 13.4186 23.8299 12.8889 23.723C11.847 23.5723 10.8575 23.1708 10.0051 22.553C9.68707 22.2794 9.43635 21.9361 9.27246 21.5499C9.10857 21.1637 9.03586 20.7448 9.06006 20.326C9.05433 19.9169 9.13398 19.5111 9.29395 19.1346C9.45391 18.758 9.69061 18.4189 9.98901 18.139C10.6876 17.4995 11.5775 17.108 12.521 17.025V15.9C12.5189 15.8462 12.5285 15.7927 12.5491 15.743C12.5696 15.6933 12.6007 15.6486 12.6401 15.612C12.7154 15.539 12.8163 15.4984 12.9211 15.499H14.251C14.3041 15.4969 14.357 15.5058 14.4065 15.5251C14.456 15.5445 14.501 15.5739 14.5386 15.6114C14.5761 15.649 14.6056 15.694 14.625 15.7435C14.6444 15.793 14.6532 15.8459 14.6511 15.899V17.052C15.2965 17.1478 15.9153 17.3744 16.47 17.718C16.9329 18.0011 17.3293 18.3807 17.6321 18.831C17.8813 19.1976 18.0302 19.623 18.064 20.065C18.0624 20.1525 18.0266 20.2358 17.9641 20.297C17.9336 20.3298 17.8964 20.3558 17.855 20.373C17.8136 20.3903 17.7689 20.3984 17.7241 20.397H15.6091C15.5011 20.4015 15.3937 20.3796 15.2961 20.333C15.2079 20.2828 15.1335 20.2113 15.0801 20.125C15.0389 19.9915 14.9715 19.8676 14.8821 19.7603C14.7926 19.653 14.6829 19.5645 14.5591 19.5C14.2251 19.3316 13.856 19.2438 13.4819 19.2438C13.1078 19.2438 12.7391 19.3316 12.405 19.5C12.2804 19.5807 12.1792 19.6928 12.1116 19.825C12.044 19.9571 12.0125 20.1047 12.02 20.253C12.017 20.3562 12.0347 20.4589 12.0718 20.5552C12.1089 20.6515 12.1647 20.7395 12.2361 20.814C12.4379 20.998 12.6765 21.137 12.936 21.222C13.3932 21.3807 13.8609 21.5067 14.3359 21.599C15.1513 21.7276 15.9477 21.9563 16.707 22.28C17.2312 22.4991 17.6822 22.863 18.0071 23.329C18.3629 23.9589 18.4962 24.6902 18.3857 25.4051C18.2753 26.12 17.9273 26.7769 17.3979 27.27C16.6126 27.912 15.6525 28.3029 14.6421 28.392V29.514C14.6444 29.5671 14.6355 29.6202 14.6162 29.6697C14.5969 29.7193 14.5676 29.7643 14.53 29.8019C14.4924 29.8395 14.4473 29.8689 14.3977 29.8882C14.3482 29.9075 14.2951 29.9163 14.2419 29.914H12.9121C12.8124 29.9127 12.7168 29.8741 12.644 29.806Z" fill="#222C4C"/>
    </svg>
    