<svg width="13" height="15" viewBox="0 0 13 15" fill="none" xmlns="http://www.w3.org/2000/svg">
    <path d="M12.31 9.48V11.61C12.31 12.96 11.21 14.06 9.86002 14.06H2.98004C1.63004 14.06 0.530029 12.96 0.530029 11.61V9.48C0.530029 9.27 0.700024 9.11 0.900024 9.11C1.10002 9.11 1.27002 9.28 1.27002 9.48V11.61C1.27002 12.55 2.04004 13.32 2.98004 13.32H9.86002C10.8 13.32 11.57 12.55 11.57 11.61V9.48C11.57 9.27 11.74 9.11 11.94 9.11C12.14 9.11 12.31 9.28 12.31 9.48Z" fill="#82BC95"/>
    <path d="M10.72 5.31C10.72 5.36 10.71 5.41001 10.69 5.46001C10.63 5.60001 10.5 5.69 10.35 5.69H8.08999V10.14C8.08999 10.35 7.91999 10.51 7.71999 10.51H5.17998C4.96998 10.51 4.80999 10.34 4.80999 10.14V5.69H2.58999C2.43999 5.69 2.29999 5.60001 2.24999 5.46001C2.18999 5.32001 2.21998 5.16 2.32998 5.05L6.20998 1.05C6.27998 0.980003 6.38 0.940002 6.48 0.940002C6.58 0.940002 6.67999 0.980003 6.74999 1.05L10.64 5.05C10.68 5.12 10.72 5.21 10.72 5.31ZM7.33999 9.75999V5.31C7.33999 5.1 7.50998 4.94 7.70998 4.94H9.45998L6.45 1.85001L3.45 4.94H5.17C5.38 4.94 5.54 5.11 5.54 5.31V9.75999H7.33999Z" fill="#82BC95"/>
    <path d="M6.41006 1.27L2.70007 5.28999H5.11005V10.09H7.75006V5.34H10.2601L6.41006 1.27Z" fill="#82BC95"/>
    </svg>
    