<svg width="12" height="15" viewBox="0 0 12 15" fill="none" xmlns="http://www.w3.org/2000/svg">
    <path d="M11.93 9.48V11.61C11.93 12.96 10.83 14.06 9.48004 14.06H2.60004C1.25004 14.06 0.150024 12.96 0.150024 11.61V9.48C0.150024 9.27 0.32002 9.11 0.52002 9.11C0.72002 9.11 0.890045 9.28 0.890045 9.48V11.61C0.890045 12.55 1.66004 13.32 2.60004 13.32H9.48004C10.42 13.32 11.19 12.55 11.19 11.61V9.48C11.19 9.27 11.36 9.11 11.56 9.11C11.76 9.11 11.93 9.28 11.93 9.48Z" fill="#F48E8C"/>
    <path d="M10.23 6.39L6.34003 10.39C6.27003 10.46 6.17004 10.5 6.07004 10.5C5.97004 10.5 5.87002 10.46 5.80002 10.39L1.92005 6.39C1.82005 6.28 1.79003 6.12 1.84003 5.98C1.90003 5.84 2.03003 5.75 2.18003 5.75H4.40003V1.3C4.40003 1.09 4.57002 0.929993 4.77002 0.929993H7.31003C7.52003 0.929993 7.68003 1.1 7.68003 1.3V5.75H9.94004C10.09 5.75 10.23 5.84 10.28 5.98C10.3 6.03 10.31 6.08 10.31 6.13C10.33 6.23 10.3 6.32 10.23 6.39ZM5.16004 1.67999V6.13C5.16004 6.34 4.99004 6.5 4.79004 6.5H3.07004L6.07004 9.59L9.08002 6.5H7.33002C7.12002 6.5 6.96003 6.33 6.96003 6.13V1.67999H5.16004Z" fill="#F48E8C"/>
    <path d="M4.78003 1.27H7.31003V6.08H9.90002L6.08002 10.16L2.33002 6.19H4.69003L4.78003 1.27Z" fill="#F48E8C"/>
    </svg>
    