<svg width="13" height="15" viewBox="0 0 13 15" fill="none" xmlns="http://www.w3.org/2000/svg">
    <path d="M9.63999 14.07H3.66999C2.85999 14.07 2.19998 13.46 2.12998 12.66L1.45996 4.71001C1.44996 4.62001 1.47998 4.54 1.53998 4.47C1.59998 4.4 1.67996 4.37 1.76996 4.37H11.52C11.61 4.37 11.69 4.41 11.75 4.47C11.81 4.53 11.84 4.62001 11.83 4.71001L11.18 12.66C11.12 13.44 10.44 14.07 9.63999 14.07ZM2.11997 4.99001L2.75998 12.6C2.79998 13.08 3.18999 13.44 3.66999 13.44H9.63999C10.11 13.44 10.51 13.07 10.55 12.6L11.18 4.99001H2.11997Z" fill="#222C4C"/>
    <path d="M11.73 3.86H1.56998C1.23998 3.86 0.969971 3.58999 0.969971 3.25999V2.94C0.969971 2.61 1.23998 2.34 1.56998 2.34H11.73C12.06 2.34 12.33 2.61 12.33 2.94V3.25999C12.33 3.58999 12.06 3.86 11.73 3.86Z" fill="#222C4C"/>
    <path d="M9.24994 2.84H8.61993V2.14C8.61993 1.82 8.35995 1.56 8.03995 1.56H5.27994C4.95994 1.56 4.69995 1.82 4.69995 2.14V2.84H4.06995V2.14C4.06995 1.48 4.60994 0.929993 5.27994 0.929993H8.03995C8.70995 0.929993 9.24994 1.47 9.24994 2.14V2.84Z" fill="#222C4C"/>
    <path d="M1.76996 4.67L2.43997 12.62C2.48997 13.26 3.02997 13.75 3.65997 13.75H9.62997C10.27 13.75 10.8 13.26 10.86 12.62L11.51 4.67H1.76996ZM4.80997 12.51C4.79997 12.51 4.79998 12.51 4.78998 12.51C4.62998 12.51 4.48998 12.38 4.47998 12.22L4.08997 6.25999C4.07997 6.08999 4.20997 5.94 4.37997 5.92C4.55997 5.91 4.69997 6.04001 4.71997 6.21001L5.10995 12.17C5.11995 12.35 4.98997 12.5 4.80997 12.51ZM6.97998 12.2C6.97998 12.37 6.83997 12.52 6.65997 12.52C6.47997 12.52 6.33997 12.38 6.33997 12.2V6.23C6.33997 6.06 6.47997 5.91 6.65997 5.91C6.83997 5.91 6.97998 6.05 6.97998 6.23V12.2ZM8.85995 12.21C8.84995 12.38 8.70996 12.5 8.54996 12.5C8.53996 12.5 8.53997 12.5 8.52997 12.5C8.35997 12.49 8.21996 12.34 8.23996 12.16L8.62997 6.2C8.63997 6.03 8.78997 5.89 8.96997 5.91C9.13997 5.92 9.27998 6.07 9.25998 6.25L8.85995 12.21Z" fill="#222C4C"/>
    </svg>
    