<svg width="29" height="30" viewBox="0 0 29 30" fill="none" xmlns="http://www.w3.org/2000/svg">
    <path d="M14.644 15.009C13.2298 15.009 11.8474 14.5897 10.6715 13.804C9.49573 13.0184 8.57941 11.9017 8.03824 10.5952C7.49707 9.28869 7.35537 7.85107 7.63126 6.46411C7.90714 5.07714 8.5881 3.80313 9.58804 2.80319C10.588 1.80324 11.862 1.12225 13.2489 0.846369C14.6359 0.570485 16.0735 0.712093 17.38 1.25326C18.6865 1.79443 19.8034 2.71084 20.589 3.88665C21.3747 5.06246 21.7939 6.44487 21.7939 7.859C21.7917 9.75465 21.0378 11.572 19.6974 12.9125C18.357 14.2529 16.5396 15.0069 14.644 15.009ZM14.644 2.34799C13.554 2.34799 12.4885 2.6712 11.5822 3.27676C10.6759 3.88231 9.96951 4.74302 9.5524 5.75002C9.13529 6.75703 9.02628 7.86511 9.23892 8.93414C9.45157 10.0032 9.97625 10.9851 10.747 11.7559C11.5177 12.5266 12.4997 13.0515 13.5688 13.2641C14.6378 13.4767 15.7458 13.3676 16.7528 12.9505C17.7598 12.5334 18.6207 11.827 19.2262 10.9207C19.8318 10.0145 20.1549 8.94898 20.1549 7.859C20.1531 6.39796 19.5718 4.99728 18.5387 3.96417C17.5056 2.93106 16.105 2.34984 14.644 2.34799Z" fill="#222C4C"/>
    <path d="M27.6699 29.906H1.61792C1.35995 29.9057 1.11284 29.8031 0.93042 29.6207C0.748004 29.4383 0.645284 29.191 0.64502 28.933C0.647931 26.2701 1.7071 23.717 3.59009 21.834C5.47307 19.9511 8.02602 18.8919 10.689 18.889H18.5991C21.2621 18.8919 23.815 19.9511 25.698 21.834C27.581 23.717 28.6402 26.2701 28.6431 28.933C28.6428 29.191 28.5401 29.4383 28.3577 29.6207C28.1753 29.8031 27.9279 29.9057 27.6699 29.906ZM2.31006 28.267H26.978C26.8083 26.1606 25.8522 24.1951 24.2998 22.7613C22.7474 21.3275 20.7124 20.5302 18.5991 20.528H10.689C8.57578 20.5305 6.54089 21.3278 4.98853 22.7616C3.43616 24.1954 2.48005 26.1607 2.31006 28.267Z" fill="#222C4C"/>
    </svg>
    