<svg width="23" height="16" viewBox="0 0 23 16" fill="none" xmlns="http://www.w3.org/2000/svg">
    <path d="M18.499 0.414009C19.6223 1.32573 20.5281 2.47658 21.1501 3.78271C21.7722 5.08883 22.095 6.51731 22.095 7.96401C22.095 9.41071 21.7722 10.8392 21.1501 12.1453C20.5281 13.4514 19.6223 14.6023 18.499 15.514C18.4163 15.5812 18.3211 15.6314 18.219 15.6618C18.1169 15.6922 18.0098 15.7022 17.9038 15.6912C17.7978 15.6802 17.695 15.6484 17.6013 15.5977C17.5076 15.5469 17.4246 15.4782 17.3574 15.3955C17.2903 15.3128 17.2401 15.2176 17.2097 15.1155C17.1793 15.0133 17.1694 14.9062 17.1804 14.8002C17.1914 14.6942 17.2232 14.5914 17.2739 14.4977C17.3247 14.404 17.3933 14.3212 17.4761 14.254C18.4122 13.4946 19.167 12.5358 19.6855 11.4475C20.204 10.3592 20.4731 9.16898 20.4731 7.96351C20.4731 6.75804 20.204 5.56778 19.6855 4.47951C19.167 3.39125 18.4122 2.43244 17.4761 1.67301C17.309 1.53735 17.2026 1.34087 17.1804 1.12679C17.1582 0.91272 17.2218 0.698588 17.3574 0.531501C17.4931 0.364415 17.6897 0.25807 17.9038 0.235847C18.1179 0.213624 18.3319 0.277343 18.499 0.413001V0.414009ZM16.4561 2.93C17.2042 3.53807 17.8074 4.30531 18.2217 5.17586C18.636 6.04642 18.8508 6.99839 18.8508 7.9625C18.8508 8.92661 18.636 9.87859 18.2217 10.7492C17.8074 11.6197 17.2042 12.3869 16.4561 12.995C16.3733 13.0622 16.2782 13.1124 16.176 13.1428C16.0739 13.1732 15.9668 13.1832 15.8608 13.1722C15.7548 13.1612 15.6521 13.1294 15.5583 13.0787C15.4646 13.0279 15.3816 12.9592 15.3145 12.8765C15.2473 12.7938 15.1971 12.6986 15.1667 12.5965C15.1364 12.4943 15.1264 12.3872 15.1375 12.2812C15.1485 12.1752 15.1802 12.0724 15.231 11.9787C15.2817 11.885 15.3504 11.8022 15.4331 11.735C15.9942 11.2789 16.4466 10.7035 16.7573 10.0505C17.068 9.3976 17.2292 8.6836 17.2292 7.9605C17.2292 7.2374 17.068 6.52341 16.7573 5.87048C16.4466 5.21754 15.9942 4.64209 15.4331 4.18601C15.2662 4.05035 15.1598 3.85392 15.1377 3.63995C15.1156 3.42597 15.1793 3.21196 15.3149 3.04501C15.4506 2.87805 15.6471 2.77183 15.8611 2.7497C16.0751 2.72757 16.2891 2.79135 16.4561 2.92701V2.93ZM14.4131 5.44601C14.7864 5.75061 15.0871 6.13444 15.2937 6.56969C15.5003 7.00494 15.6077 7.4807 15.6077 7.9625C15.6077 8.4443 15.5003 8.92007 15.2937 9.35532C15.0871 9.79057 14.7864 10.1744 14.4131 10.479C14.2455 10.6094 14.0335 10.6689 13.8225 10.6448C13.6115 10.6208 13.4184 10.515 13.2844 10.3502C13.1505 10.1854 13.0864 9.9747 13.106 9.76325C13.1255 9.5518 13.227 9.35642 13.3889 9.219C13.5758 9.0669 13.7266 8.87508 13.8301 8.65748C13.9335 8.43987 13.9871 8.20195 13.9871 7.96101C13.9871 7.72006 13.9335 7.48214 13.8301 7.26453C13.7266 7.04693 13.5758 6.85511 13.3889 6.70301C13.227 6.5656 13.1255 6.37023 13.106 6.15877C13.0864 5.94732 13.1505 5.73661 13.2844 5.57182C13.4184 5.40702 13.6115 5.30125 13.8225 5.27717C14.0335 5.25309 14.2455 5.31262 14.4131 5.443V5.44601ZM10.647 0.491004C10.837 0.576766 10.9982 0.715486 11.1113 0.890541C11.2245 1.0656 11.2847 1.26956 11.2849 1.478V14.447C11.2851 14.6556 11.2251 14.8597 11.1118 15.0348C10.9986 15.21 10.837 15.3486 10.6467 15.434C10.4565 15.5194 10.2454 15.5479 10.0393 15.5162C9.83318 15.4844 9.64084 15.3937 9.48511 15.255L4.92896 11.205H2.63892C2.0656 11.2047 1.51599 10.9769 1.1106 10.5715C0.705199 10.1661 0.477316 9.61632 0.477051 9.04301V6.88201C0.477316 6.30869 0.705199 5.75893 1.1106 5.35354C1.51599 4.94814 2.0656 4.72027 2.63892 4.72001H4.92896L9.48511 0.670005C9.64118 0.531781 9.83374 0.441401 10.0398 0.40966C10.2458 0.377919 10.4565 0.406158 10.647 0.491004Z" fill="#222C4C"/>
    </svg>
    